<?xml version="1.0" standalone="no"?>
<!DOCTYPE svg PUBLIC "-//W3C//DTD SVG 20010904//EN"
 "http://www.w3.org/TR/2001/REC-SVG-20010904/DTD/svg10.dtd">
<svg version="1.0" xmlns="http://www.w3.org/2000/svg"
 width="348.000000pt" height="463.000000pt" viewBox="0 0 348.000000 463.000000"
 preserveAspectRatio="xMidYMid meet">

<g transform="translate(0.000000,463.000000) scale(0.100000,-0.100000)"
fill="#000000" stroke="none">
<path d="M1646 4429 c-17 -19 -26 -43 -26 -64 0 -18 -6 -37 -13 -43 -7 -6 -14
-26 -15 -44 -1 -18 -6 -67 -11 -110 -9 -84 -4 -148 10 -113 4 11 8 35 8 53 1
17 6 32 11 32 6 0 10 8 10 18 0 10 7 27 15 39 13 19 23 21 92 18 90 -4 133
-17 133 -42 0 -9 9 -26 19 -37 29 -32 41 -117 26 -183 -11 -46 -23 -65 -71
-114 -74 -74 -108 -79 -161 -22 -48 50 -65 79 -74 121 -5 30 -7 23 -8 -36 -1
-89 -12 -112 -51 -112 -30 0 -42 -22 -19 -36 8 -4 9 -33 4 -89 -5 -66 -3 -89
9 -113 18 -35 21 -72 6 -72 -11 0 -34 51 -43 97 -8 43 -53 110 -86 128 -70 39
-109 54 -134 51 -47 -5 -42 -16 7 -16 44 0 114 -25 103 -37 -3 -2 -14 0 -25 6
-12 6 -27 11 -34 11 -7 0 6 -9 29 -19 25 -12 48 -32 57 -50 23 -44 20 -45 -15
-9 l-30 33 28 -44 c23 -36 28 -56 28 -105 0 -48 -3 -61 -15 -61 -8 0 -16 11
-18 25 -8 64 -34 129 -53 135 -10 4 -19 10 -19 14 0 4 -22 14 -50 21 -27 7
-50 18 -50 23 0 5 -7 7 -14 4 -10 -4 -13 -1 -9 9 4 10 0 12 -11 8 -9 -3 -16
-2 -16 4 0 6 12 15 28 21 24 10 23 10 -20 8 -61 -3 -62 10 -2 19 51 7 42 24
-13 24 -23 0 -33 5 -33 15 0 8 4 15 9 15 5 0 7 9 4 20 -7 26 -23 26 -23 -1 0
-18 -3 -17 -26 11 -30 35 -26 49 9 33 22 -10 24 -9 19 14 -3 13 -11 27 -19 30
-10 4 -11 8 -4 13 8 4 6 13 -6 27 -54 64 -55 66 -43 73 8 5 3 17 -17 40 -23
25 -38 33 -64 33 -19 0 -26 2 -16 4 9 3 17 11 17 19 0 14 -27 24 -65 24 -45 0
-65 5 -64 15 4 30 -1 36 -21 25 -14 -8 -26 -8 -41 0 -11 7 -23 9 -26 6 -4 -3
-13 0 -21 7 -11 8 -10 3 3 -16 25 -38 5 -52 -39 -28 -34 19 -110 21 -129 2 -6
-6 -15 -11 -19 -11 -11 0 -47 -37 -42 -43 2 -2 -2 -10 -11 -17 -11 -9 -15 -9
-15 -1 0 7 -5 9 -10 6 -17 -10 -11 -25 10 -25 11 0 20 -4 20 -10 0 -5 -5 -9
-11 -7 -6 1 -16 -7 -22 -18 -7 -10 -18 -25 -25 -33 -21 -24 -34 -52 -22 -52 5
0 10 5 10 10 0 6 5 10 10 10 7 0 7 -6 1 -19 -6 -10 -7 -21 -4 -25 3 -3 -1 -6
-10 -6 -21 0 -22 -28 -2 -50 9 -10 18 -30 21 -46 3 -15 8 -32 11 -37 3 -6 1
-7 -6 -3 -6 4 -60 2 -120 -5 -104 -12 -108 -13 -118 -40 -9 -24 -8 -28 8 -31
18 -3 17 -6 -6 -56 -33 -70 -33 -104 -2 -98 89 19 132 26 162 26 18 0 40 6 48
14 12 13 16 12 27 -8 25 -48 8 -62 -88 -75 -49 -6 -96 -11 -106 -11 -20 0 -48
-25 -39 -34 4 -3 -1 -6 -11 -6 -13 0 -15 -4 -6 -19 5 -11 14 -50 19 -88 l10
-68 -2 72 c-2 57 0 70 10 61 7 -6 13 -7 13 -2 0 23 33 -40 51 -99 12 -37 23
-66 25 -64 2 2 -9 48 -26 101 -35 113 -31 125 45 134 48 5 80 -11 71 -35 -4
-9 4 -13 24 -13 l29 0 -13 -37 c-7 -21 -16 -66 -19 -101 -7 -66 -41 -147 -57
-137 -6 4 -19 23 -30 43 -30 57 -24 21 9 -50 44 -96 53 -124 53 -163 0 -19 4
-38 9 -41 5 -3 6 3 3 13 -5 15 -4 16 5 3 18 -25 12 -44 -22 -67 -17 -13 -26
-23 -20 -23 46 0 158 193 199 343 10 37 23 66 28 64 4 -1 19 -22 31 -46 13
-23 32 -52 42 -63 17 -21 17 -21 -1 -14 -17 6 -18 3 -13 -28 5 -34 33 -76 50
-76 9 0 7 15 -8 55 -4 11 16 -13 45 -53 41 -58 56 -71 71 -67 10 4 19 2 19 -3
0 -5 10 -12 21 -15 14 -4 20 -11 16 -21 -4 -9 2 -21 12 -28 24 -17 42 -53 35
-71 -3 -8 2 -17 10 -20 9 -4 16 -11 16 -17 0 -6 -6 -8 -12 -5 -7 4 -5 0 5 -8
12 -10 14 -16 6 -19 -9 -3 -8 -16 4 -52 9 -27 14 -53 10 -58 -3 -6 -5 -45 -4
-87 2 -78 18 -121 46 -121 13 0 35 -56 35 -90 0 -9 14 -42 31 -75 18 -33 37
-80 44 -105 l12 -45 0 80 c0 44 2 97 3 118 3 36 4 37 24 20 46 -38 63 -73 26
-53 -11 6 -20 7 -20 1 0 -5 6 -11 14 -14 28 -11 48 -54 37 -76 -8 -14 -8 -22
0 -26 6 -4 8 -14 4 -24 -3 -9 -8 -42 -11 -73 l-4 -57 29 5 c50 10 199 -71 187
-101 -3 -8 0 -16 7 -19 7 -3 3 -5 -8 -5 -33 2 -36 0 -25 -20 7 -14 7 -22 -2
-27 -7 -4 -8 -3 -4 4 10 16 -19 15 -32 -1 -6 -7 -9 -23 -6 -34 4 -14 -1 -28
-14 -41 -24 -24 -47 -64 -44 -75 1 -4 -4 -6 -10 -5 -7 2 -12 -2 -11 -9 2 -6
-7 -15 -19 -18 -16 -6 -18 -9 -7 -16 10 -6 8 -9 -9 -9 -12 0 -31 -9 -42 -20
-11 -11 -18 -20 -15 -20 3 0 -3 -9 -13 -21 -30 -37 -103 -109 -109 -109 -14 0
-73 -71 -73 -87 1 -27 38 -161 39 -138 0 11 -6 42 -14 69 -8 27 -15 56 -15 65
1 28 120 112 234 163 60 28 126 63 145 79 20 16 39 29 43 29 4 0 5 -36 2 -80
-3 -46 -1 -88 6 -99 7 -14 7 -22 -2 -27 -6 -4 -8 -3 -4 4 3 6 2 13 -3 16 -14
9 -7 -19 9 -40 8 -10 10 -15 4 -11 -6 3 -16 -5 -23 -19 -9 -20 -9 -24 1 -18 9
6 9 3 -1 -9 -10 -13 -10 -17 -1 -17 7 0 10 -7 6 -15 -3 -10 1 -15 11 -15 14 0
14 -2 -3 -16 -10 -8 -13 -13 -6 -9 8 4 12 -3 14 -22 2 -45 3 -51 9 -57 3 -3 6
0 6 6 0 7 4 22 8 33 5 16 5 17 -4 5 -8 -12 -10 -11 -8 7 1 21 2 21 19 6 17
-15 18 -14 19 18 2 70 2 95 -2 124 -2 17 1 31 5 32 5 1 12 6 16 13 4 6 6 -18
6 -54 -1 -47 2 -62 10 -55 8 6 14 4 18 -7 9 -22 8 -24 -9 -18 -12 5 -15 -2
-15 -27 0 -26 3 -30 10 -19 9 13 11 13 19 0 12 -18 3 -33 -15 -26 -16 6 -16 7
-16 -126 0 -53 3 -101 7 -108 4 -7 1 -19 -7 -27 -14 -13 -13 -63 1 -63 3 1 16
9 29 20 20 16 21 22 10 39 -15 24 -4 39 16 22 11 -9 15 -4 20 33 4 25 5 62 2
83 -5 35 -4 35 6 -6 10 -37 9 -55 -6 -105 -26 -91 -30 -124 -16 -141 9 -11 9
-15 1 -15 -6 0 -14 14 -18 30 -7 38 -37 37 -40 0 -1 -14 0 -19 3 -12 5 10 9
10 20 1 11 -9 8 -16 -16 -40 -25 -26 -32 -28 -56 -18 -16 5 -47 26 -70 45 -35
28 -74 44 -74 31 0 -2 -7 -52 -15 -112 -10 -67 -12 -112 -6 -118 5 -5 35 -15
68 -22 32 -8 76 -20 98 -29 22 -8 54 -15 72 -16 l32 0 -2 -54 c-1 -30 -5 -52
-9 -49 -11 6 -10 -21 2 -51 5 -14 10 -69 11 -121 1 -52 5 -95 10 -95 5 0 9 6
9 13 0 8 3 9 8 1 4 -6 13 -13 21 -16 17 -5 26 -48 10 -48 -5 0 -8 4 -5 8 3 5
-2 9 -11 9 -11 0 -6 -9 16 -29 37 -33 63 -38 35 -6 -19 21 -19 21 1 14 30 -11
114 -24 120 -18 12 13 3 122 -15 180 -30 95 -29 100 30 108 28 4 50 10 50 15
0 5 15 -1 34 -12 26 -15 48 -19 88 -17 l53 3 3 43 c2 24 -6 73 -17 110 -24 78
-30 189 -13 247 6 22 24 56 40 75 27 32 31 33 48 20 18 -14 18 -14 5 2 -7 10
-19 18 -25 18 -6 0 -19 14 -28 30 -19 33 -13 40 9 13 12 -16 12 -14 2 10 -7
15 -16 27 -20 27 -4 0 -10 11 -13 24 -7 29 21 89 39 82 14 -5 25 14 25 45 0
10 4 19 10 19 5 0 6 7 3 17 -4 9 -2 14 3 10 5 -3 10 9 11 26 0 18 4 68 8 112
4 44 8 94 9 110 1 17 5 36 9 43 13 20 78 14 135 -13 61 -28 172 -104 172 -117
0 -4 -30 -68 -67 -140 -67 -134 -88 -194 -72 -203 4 -3 18 4 29 15 24 24 46
22 114 -8 27 -12 52 -22 55 -22 4 0 28 -13 54 -29 44 -28 46 -29 52 -11 4 11
3 25 0 30 -4 6 -1 17 5 25 15 18 5 49 -11 39 -9 -5 -10 1 -5 20 9 38 24 162
31 276 l7 95 -46 56 c-25 31 -46 63 -46 72 0 20 19 64 42 98 9 14 34 66 56
115 39 92 94 178 106 167 3 -3 6 0 6 7 0 7 8 20 19 29 10 9 37 45 59 81 55 86
60 92 84 88 31 -4 50 -76 47 -173 -3 -101 -2 -224 3 -295 2 -30 -2 -82 -8
-115 -7 -33 -20 -125 -30 -203 -16 -126 -16 -159 -5 -272 13 -138 9 -198 -20
-273 -11 -26 -19 -60 -19 -76 0 -34 -9 -44 -27 -30 -10 9 -13 8 -13 -5 0 -9 3
-16 8 -16 13 0 35 -44 39 -77 3 -26 0 -33 -14 -34 -11 0 -13 -3 -5 -6 16 -6
15 -32 -2 -39 -8 -3 -12 -13 -9 -25 6 -22 -8 -24 -39 -8 -21 11 -21 12 -3 26
18 12 16 13 -18 9 -43 -6 -51 9 -9 17 15 4 41 18 57 33 23 20 24 22 5 10 -38
-24 -68 -36 -98 -37 -34 -1 -110 27 -91 33 22 8 2 21 -33 22 -20 1 -44 12 -60
27 l-28 26 25 -5 c35 -6 124 55 153 106 l22 40 -38 34 c-21 18 -48 48 -61 66
-13 18 -25 31 -28 28 -3 -2 2 -15 11 -28 21 -30 20 -38 -8 -77 l-24 -33 -12
54 c-6 30 -23 67 -39 87 l-28 34 5 -55 c3 -43 -1 -64 -18 -98 l-22 -43 -35 49
c-19 27 -39 56 -44 64 -8 12 -14 10 -37 -16 -15 -17 -41 -36 -59 -43 -38 -15
-64 -41 -41 -41 8 0 38 -11 66 -25 l52 -25 1 -123 c1 -163 4 -172 54 -172 40
0 40 0 42 40 11 168 27 181 48 40 7 -47 18 -92 24 -98 16 -16 157 -19 169 -4
5 7 12 25 16 40 4 17 11 25 18 21 7 -4 9 -32 5 -78 -4 -55 -12 -84 -37 -129
-31 -57 -33 -71 -14 -139 6 -20 44 -24 76 -7 23 13 37 4 20 -13 -7 -7 -12 -16
-12 -20 0 -10 27 -11 32 0 3 7 72 61 97 77 11 6 13 4 8 -11 -7 -19 -7 -19 8 0
8 10 16 23 17 28 2 5 18 11 36 12 53 4 56 13 42 124 -6 55 -9 111 -4 123 10
31 6 89 -12 156 -18 69 -18 82 1 57 14 -18 15 -15 9 28 -12 90 -6 144 29 265
19 67 33 131 30 142 -7 28 -23 16 -22 -17 0 -15 -4 -44 -9 -64 -6 -21 -7 -38
-3 -38 3 0 1 -4 -4 -8 -6 -4 -16 -20 -24 -37 -7 -16 -18 -38 -23 -49 -7 -14
-6 -17 4 -12 7 4 3 -1 -9 -10 -13 -9 -23 -25 -23 -35 0 -11 -4 -19 -9 -19 -5
0 -12 -10 -16 -22 -4 -15 -8 -18 -12 -10 -3 7 3 22 12 32 17 19 17 19 -5 15
-17 -3 -19 -1 -11 9 6 7 8 16 4 19 -3 4 -1 7 6 7 7 0 9 5 5 12 -5 7 -2 9 8 6
11 -5 14 -1 10 17 -2 13 1 39 7 58 20 59 22 79 29 212 7 130 7 209 2 276 -2
26 3 42 18 57 11 11 23 18 26 15 3 -4 6 -2 6 4 0 6 -6 16 -14 22 -8 7 -13 21
-11 33 3 14 0 18 -11 14 -9 -3 -12 -1 -9 4 3 6 15 10 26 10 10 0 19 4 19 9 0
5 8 12 17 15 14 6 14 3 -3 -15 -17 -21 -17 -22 -1 -16 11 4 16 3 12 -4 -4 -6
-13 -8 -21 -5 -7 3 -16 1 -19 -4 -4 -6 0 -10 7 -10 9 0 9 -3 -2 -10 -14 -9 -7
-14 13 -11 5 1 6 -3 2 -9 -3 -5 -1 -10 5 -10 6 0 8 -4 5 -10 -3 -5 -1 -10 4
-10 6 0 11 5 11 10 0 6 6 5 14 -2 8 -7 11 -17 9 -23 -3 -5 2 -3 11 6 13 12 15
22 8 40 -10 26 -5 52 7 44 4 -2 8 11 9 30 1 28 -2 33 -16 28 -14 -6 -15 -4 -5
9 7 8 9 18 5 22 -4 4 0 6 8 4 11 -2 15 8 17 42 l2 45 -13 -30 c-8 -16 -12 -34
-8 -39 3 -5 0 -6 -6 -2 -6 4 -9 13 -6 21 4 8 -1 18 -10 21 -9 3 -13 11 -10 18
3 6 -2 2 -10 -8 -9 -11 -16 -24 -16 -29 0 -4 -4 -5 -10 -2 -6 4 -7 -1 -3 -11
4 -12 3 -15 -5 -10 -7 4 -10 2 -7 -6 3 -7 1 -19 -4 -26 -13 -20 -63 5 -52 27
4 9 9 39 10 66 3 76 68 255 92 255 5 0 8 3 7 8 -1 4 5 21 15 38 9 17 13 35 9
38 -3 4 2 4 12 0 14 -5 17 -4 12 4 -4 7 -2 12 4 12 6 0 15 10 21 23 9 20 9 20
4 -5 -4 -20 0 -30 14 -37 15 -8 20 -7 25 5 3 9 4 20 0 25 -3 5 0 9 6 9 6 0 9
4 5 9 -3 5 3 16 12 23 26 19 40 53 57 146 36 188 5 298 -132 467 -5 6 -8 22
-7 35 3 42 -14 88 -42 110 -14 11 -24 23 -21 25 3 3 18 -5 33 -17 l28 -22 -7
30 c-4 16 -13 41 -21 57 -7 15 -9 25 -4 22 22 -14 7 16 -16 31 -14 9 -25 22
-25 29 0 7 -7 15 -15 19 -8 3 -14 13 -14 23 1 17 2 17 6 1 2 -10 9 -18 15 -18
5 0 -1 20 -15 44 -18 32 -22 47 -14 55 8 8 6 11 -7 11 -9 0 -15 4 -11 9 3 5 0
13 -5 16 -6 4 -10 17 -9 28 3 42 -1 66 -13 79 -7 7 -29 45 -47 83 -31 61 -87
128 -155 183 -11 9 -16 30 -16 70 -1 154 -40 278 -103 326 -39 30 -144 54
-187 43 -33 -8 -105 -80 -138 -137 -14 -25 -27 -47 -28 -49 -2 -2 -14 3 -27
12 -22 14 -24 20 -17 56 4 21 16 55 28 74 l21 36 -47 10 c-26 5 -78 15 -115
21 -67 12 -68 12 -92 -14 -14 -15 -25 -31 -25 -35 0 -4 -9 -16 -20 -26 -26
-23 -76 -111 -85 -148 -4 -15 -12 -30 -18 -34 -6 -4 -8 2 -4 18 4 13 12 89 17
169 9 125 9 151 -5 182 -17 42 -20 61 -5 38 15 -23 12 5 -4 44 -22 53 -74 106
-105 106 -15 0 -32 -5 -38 -11 -8 -8 -17 -7 -34 5 -37 25 -74 20 -103 -15z
m44 -24 c-7 -8 -17 -15 -22 -15 -6 0 -5 7 2 15 7 8 17 15 22 15 6 0 5 -7 -2
-15z m-1130 -278 c0 -2 -10 -12 -21 -23 -22 -19 -22 -19 -10 4 10 18 31 31 31
19z m20 -42 c-7 -8 -18 -15 -24 -15 -6 0 -2 7 8 15 25 19 32 19 16 0z m110 5
c0 -5 -5 -10 -11 -10 -5 0 -7 5 -4 10 3 6 8 10 11 10 2 0 4 -4 4 -10z m320
-31 c15 -28 4 -38 -15 -13 -9 12 -14 14 -15 6 0 -7 -4 -10 -10 -7 -6 4 -5 11
3 20 17 20 24 18 37 -6z m-394 -4 c-11 -8 -25 -15 -30 -15 -6 0 -2 7 8 15 11
8 25 15 30 15 6 0 2 -7 -8 -15z m21 -31 c-40 -35 -54 -30 -16 6 18 16 35 27
38 24 3 -3 -7 -17 -22 -30z m315 1 c6 -29 5 -30 -16 -9 -15 14 -16 13 -16 -8
-1 -21 -2 -21 -11 -5 -12 21 -4 51 11 42 5 -3 10 -1 10 5 0 20 18 1 22 -25z
m1318 31 c0 -11 -19 -15 -25 -6 -3 5 1 10 9 10 9 0 16 -2 16 -4z m-1596 -38
c-13 -23 -37 -48 -46 -48 -5 0 1 14 14 30 21 29 46 43 32 18z m1586 -10 c0
-12 -3 -18 -7 -14 -11 10 -12 36 -2 36 5 0 9 -10 9 -22z m-1468 -20 c-19 -19
-14 -37 13 -44 24 -6 30 -19 27 -54 -3 -31 9 -60 26 -61 27 -1 -38 -24 -80
-28 -5 -1 -8 -30 -8 -66 0 -69 -8 -77 -44 -50 -10 7 -15 18 -12 24 4 6 -5 7
-26 0 -37 -10 -41 -7 -56 40 -12 33 -12 33 16 26 15 -3 28 -11 30 -16 2 -5 11
-9 20 -9 24 1 52 24 44 37 -9 13 -48 34 -80 42 -22 6 -23 9 -10 22 8 8 13 20
10 27 -7 21 39 84 58 79 10 -2 31 6 46 19 31 25 46 32 26 12z m1810 -8 c51
-14 58 -34 49 -127 -1 -8 -17 -13 -45 -13 -51 0 -66 -14 -73 -69 -5 -38 -29
-58 -50 -42 -5 3 3 -4 17 -16 34 -31 45 -24 45 31 0 31 5 50 15 56 22 14 33
12 27 -4 -8 -20 18 -40 43 -33 33 8 23 -9 -32 -57 -52 -45 -68 -54 -68 -38 0
5 -6 9 -12 9 -7 0 -32 3 -55 7 -55 10 -56 -6 -3 -24 29 -10 38 -16 30 -24 -8
-8 -19 -6 -40 6 -19 11 -27 12 -24 4 3 -7 21 -20 41 -30 43 -20 33 -39 -18
-34 -28 2 -39 12 -66 53 -36 55 -53 117 -34 123 6 2 11 24 11 48 0 47 25 108
57 136 23 21 89 46 123 47 14 1 42 -4 62 -9z m-493 -26 c-14 -17 2 -19 19 -2
8 8 15 8 28 -3 16 -12 17 -12 9 1 -8 13 -6 13 8 2 9 -8 21 -11 27 -7 5 3 10 2
10 -4 0 -5 8 -12 18 -14 9 -3 -14 -2 -53 1 -64 5 -69 4 -56 -11 12 -15 11 -17
-13 -15 -17 2 -25 7 -22 15 10 24 -10 13 -51 -29 -40 -43 -56 -71 -46 -81 3
-3 15 5 27 19 22 26 86 45 86 26 0 -7 -12 -18 -27 -26 -28 -14 -69 -56 -56
-56 4 0 17 9 29 21 37 35 47 17 15 -26 -17 -22 -31 -48 -31 -57 0 -16 -22 -41
-125 -136 -38 -35 -46 -48 -40 -65 4 -12 9 -38 12 -57 l5 -36 -138 15 -137 15
-23 -30 c-16 -19 -24 -24 -25 -14 0 10 -3 8 -8 -5 -7 -17 -10 -14 -19 19 -13
44 -7 63 13 46 11 -9 17 -5 29 18 22 43 39 52 107 60 69 8 88 26 39 37 -35 8
-110 76 -110 100 0 9 9 15 22 15 12 0 18 3 15 6 -3 4 -2 15 4 26 10 18 11 18
30 -4 15 -17 19 -19 15 -5 -6 18 18 25 29 7 9 -15 58 -12 83 6 21 14 22 14 22
-6 0 -33 18 -14 47 48 15 32 56 90 91 130 61 69 66 72 98 66 23 -4 34 -2 34 5
0 7 5 9 10 6 8 -5 7 -11 -1 -21z m-1004 -54 c3 -5 1 -10 -4 -10 -6 0 -11 5
-11 10 0 6 2 10 4 10 3 0 8 -4 11 -10z m502 -72 c-3 -7 -5 -2 -5 12 0 14 2 19
5 13 2 -7 2 -19 0 -25z m673 -16 c0 -5 -9 -38 -20 -73 -11 -35 -24 -91 -29
-124 -5 -33 -9 -48 -10 -33 0 15 -14 50 -31 76 -16 27 -30 58 -30 69 0 23 18
43 34 37 7 -3 25 9 41 26 28 30 45 38 45 22z m-1607 -9 c-7 -2 -19 -2 -25 0
-7 3 -2 5 12 5 14 0 19 -2 13 -5z m-83 -38 c0 -8 -4 -15 -10 -15 -5 0 -10 7
-10 15 0 8 5 15 10 15 6 0 10 -7 10 -15z m534 -6 c-6 -11 -24 -2 -24 11 0 5 7
7 15 4 8 -4 12 -10 9 -15z m471 3 c-3 -3 -11 0 -18 7 -9 10 -8 11 6 5 10 -3
15 -9 12 -12z m-645 -7 c0 -8 -4 -15 -10 -15 -5 0 -7 7 -4 15 4 8 8 15 10 15
2 0 4 -7 4 -15z m-97 -7 c15 1 27 0 27 -2 0 -15 -25 -56 -34 -56 -16 1 -52 32
-59 53 -6 15 -3 17 16 11 12 -4 34 -7 50 -6z m-339 -13 c3 -8 14 -15 25 -15
13 0 24 -13 35 -40 20 -51 20 -71 0 -45 -15 20 -16 20 -12 -4 2 -13 -3 -26 -9
-28 -8 -3 -13 4 -13 15 0 16 -21 71 -48 125 -2 4 1 7 6 7 5 0 12 -7 16 -15z
m87 -47 c22 -28 25 -45 3 -28 -17 15 -38 50 -28 50 3 0 14 -10 25 -22z m-201
-26 c0 -12 -9 -17 -33 -19 l-32 -1 28 10 c19 7 26 15 23 25 -3 8 -1 11 4 8 6
-3 10 -14 10 -23z m30 8 c0 -11 -2 -20 -4 -20 -2 0 -6 9 -9 20 -3 11 -1 20 4
20 5 0 9 -9 9 -20z m-120 0 c0 -5 -15 -10 -32 -10 -25 0 -29 3 -18 10 20 13
50 13 50 0z m417 -17 c-8 -7 -37 9 -31 19 3 5 12 4 20 -3 8 -6 13 -14 11 -16z
m-37 -17 c0 -3 -4 -8 -10 -11 -5 -3 -10 -1 -10 4 0 6 5 11 10 11 6 0 10 -2 10
-4z m76 -6 c22 0 23 -2 12 -20 -14 -23 -38 -26 -56 -8 -18 18 -15 41 4 34 9
-3 27 -6 40 -6z m536 -25 c21 -4 43 -17 51 -29 18 -26 38 -119 29 -127 -4 -4
-20 0 -37 7 -17 8 -23 13 -13 14 9 0 20 5 23 11 7 11 -66 -17 -75 -29 -3 -4
-4 -6 -1 -5 2 1 13 -2 24 -8 10 -6 35 -11 53 -11 19 0 36 -3 39 -8 2 -4 -6
-29 -19 -55 -20 -39 -22 -51 -13 -67 12 -20 12 -20 -60 -78 -7 -6 -24 -15 -38
-22 -18 -8 -25 -19 -25 -38 0 -27 6 -32 74 -59 l29 -12 -29 -29 c-33 -34 -114
-52 -114 -26 0 14 -50 53 -50 39 -1 -5 -7 3 -14 17 -8 14 -12 28 -10 32 3 5 1
8 -3 8 -5 0 -9 25 -9 55 1 42 4 54 14 50 8 -3 3 8 -11 24 -13 16 -27 45 -31
64 -3 19 -15 42 -26 52 -11 10 -20 25 -20 34 0 12 3 12 12 3 19 -19 23 -14 24
31 0 46 33 122 68 160 23 25 36 25 158 2z m-292 -10 c0 -9 -6 -18 -14 -21 -8
-3 -13 -13 -11 -23 2 -9 -3 -25 -11 -36 -13 -17 -14 -16 -14 18 0 20 4 37 9
37 5 0 11 9 14 20 6 23 27 27 27 5z m1177 -40 l22 -33 -25 -17 c-24 -16 -26
-15 -40 2 -16 22 -28 78 -20 92 10 15 37 -4 63 -44z m-1409 6 c10 -6 8 -10
-10 -14 -35 -10 -45 -8 -52 8 -4 11 2 15 22 15 15 0 33 -4 40 -9z m142 -21 c0
-5 -4 -10 -10 -10 -5 0 -10 5 -10 10 0 6 5 10 10 10 6 0 10 -4 10 -10z m-323
-55 c18 -20 36 -46 39 -60 3 -14 11 -22 17 -18 6 4 8 0 4 -9 -4 -11 2 -18 19
-22 33 -9 40 -32 18 -58 -16 -18 -16 -20 -3 -15 12 4 30 -12 63 -57 25 -35 65
-82 89 -106 23 -24 37 -40 31 -37 -7 4 -18 -1 -25 -10 -12 -14 -12 -16 1 -8
12 7 13 6 3 -7 -7 -8 -11 -17 -8 -20 3 -2 -2 -5 -10 -5 -8 0 -12 4 -10 8 3 4
-11 19 -30 33 -19 15 -35 33 -35 40 0 7 -13 22 -30 34 -16 13 -30 31 -30 42 0
10 -9 22 -20 25 -31 10 -44 42 -23 54 10 6 13 11 6 11 -7 0 -19 12 -27 28 -8
15 -15 20 -16 12 0 -8 -9 3 -21 25 -12 22 -30 49 -40 61 -26 27 -25 94 0 94 3
0 21 -16 38 -35z m1987 -21 c15 -14 16 -14 17 3 0 10 6 0 13 -22 7 -22 22 -59
34 -82 27 -52 27 -76 2 -131 -10 -23 -22 -59 -26 -78 -4 -24 -13 -38 -25 -41
-34 -9 -20 -26 16 -20 26 4 35 2 35 -8 0 -15 -102 -40 -127 -31 -9 4 -17 -1
-20 -14 -3 -11 -9 -20 -14 -20 -5 0 -9 -4 -9 -10 0 -5 6 -10 14 -10 7 0 16 -9
19 -20 6 -22 -8 -28 -16 -7 -4 9 -8 9 -16 -3 -5 -8 -7 -18 -4 -24 4 -5 1 -6
-7 -1 -9 6 -11 0 -6 -21 9 -44 -5 -59 -35 -35 -13 10 -21 23 -17 27 5 4 18 -1
30 -12 23 -19 23 -19 6 2 -14 16 -15 23 -5 34 10 12 9 12 -5 2 -11 -9 -18 -10
-23 -2 -3 5 -1 10 4 10 6 0 11 5 11 11 0 12 54 84 119 160 33 38 33 41 16 57
-17 16 -17 16 -11 -10 8 -37 1 -35 -18 4 -19 37 -20 41 -4 32 8 -5 9 -2 4 12
-4 10 -14 42 -21 71 -18 70 -48 133 -75 162 -20 21 -21 23 -4 18 55 -15 72
-16 90 -2 25 19 39 19 58 -1z m373 -101 c38 -18 40 -24 34 -88 -1 -7 -50 -5
-148 7 -82 9 -151 17 -155 17 -17 2 -7 52 13 72 20 20 29 21 120 16 66 -3 111
-11 136 -24z m-1307 -35 c0 -6 -7 -7 -16 -4 -9 3 -22 6 -30 6 -8 0 -14 4 -14
8 0 5 14 7 30 4 17 -2 30 -9 30 -14z m491 5 c13 -16 12 -17 -3 -4 -17 13 -22
21 -14 21 2 0 10 -8 17 -17z m-1351 -38 c14 -19 14 -19 -2 -6 -10 7 -18 18
-18 24 0 6 1 8 3 6 1 -2 9 -13 17 -24z m1020 5 c0 -11 -4 -20 -10 -20 -5 0
-10 9 -10 20 0 11 5 20 10 20 6 0 10 -9 10 -20z m-135 0 c-3 -5 -11 -10 -16
-10 -6 0 -7 5 -4 10 3 6 11 10 16 10 6 0 7 -4 4 -10z m62 -12 c-3 -8 -6 -5 -6
6 -1 11 2 17 5 13 3 -3 4 -12 1 -19z m-27 2 c0 -5 -5 -10 -11 -10 -5 0 -7 5
-4 10 3 6 8 10 11 10 2 0 4 -4 4 -10z m505 -26 c9 -15 12 -23 6 -20 -11 7 -35
46 -28 46 3 0 12 -12 22 -26z m-475 -27 c17 -9 34 -10 55 -4 20 5 53 4 98 -6
37 -7 70 -10 73 -5 3 4 20 8 39 8 41 0 86 -35 110 -86 19 -40 52 -208 54 -274
1 -23 5 -25 55 -26 42 -1 69 -10 118 -37 35 -19 62 -40 61 -46 -2 -6 0 -10 5
-9 8 2 106 -93 107 -104 0 -3 4 -10 9 -15 6 -5 6 -2 1 6 -6 11 -4 13 11 7 10
-5 51 -14 89 -21 63 -11 145 -47 153 -67 2 -5 8 -6 13 -2 5 3 9 -4 9 -14 0
-16 6 -20 33 -18 25 2 39 -5 63 -29 28 -29 54 -36 54 -14 0 6 -4 8 -9 4 -5 -3
-16 3 -23 12 -20 27 -55 44 -75 36 -17 -6 -17 -5 -2 13 9 10 33 54 53 97 38
83 51 96 42 45 -6 -29 -5 -31 6 -14 53 76 81 91 47 24 -23 -47 -19 -44 29 18
18 23 32 49 32 57 0 20 17 31 26 16 3 -6 -10 -43 -29 -83 l-37 -71 45 50 c25
28 45 53 45 58 0 10 30 9 30 -2 0 -5 -22 -43 -50 -85 -57 -88 -63 -109 -19
-72 34 29 44 32 55 15 4 -7 -23 -39 -67 -80 -79 -73 -96 -79 -190 -69 -30 3
-79 2 -109 -2 -30 -3 -90 -7 -133 -7 -43 -1 -76 -5 -73 -10 3 -5 -2 -33 -10
-62 -35 -117 -41 -149 -31 -156 6 -4 47 -8 91 -10 45 -3 87 -6 94 -9 15 -4
-59 -84 -78 -84 -6 0 -8 -5 -4 -12 4 -6 3 -8 -4 -4 -6 3 -17 -1 -25 -9 -25
-24 -44 -9 -41 33 1 21 -4 45 -11 55 -12 17 -15 16 -30 -17 -10 -20 -21 -36
-24 -36 -4 0 -25 15 -46 33 l-38 33 -23 169 c-13 94 -24 172 -24 175 0 3 16 5
35 6 20 0 31 -3 25 -6 -7 -4 5 -15 27 -25 21 -10 47 -22 58 -27 l20 -9 -20 18
c-23 21 -32 54 -13 49 7 -1 10 -1 5 1 -4 3 -4 10 0 16 3 7 -4 3 -16 -7 -20
-18 -21 -18 -15 -2 6 15 3 17 -17 12 -13 -3 -18 -3 -11 0 10 5 10 9 1 20 -6 8
-15 11 -20 8 -5 -3 -9 2 -9 10 0 9 -7 13 -20 11 -36 -7 -40 -15 -40 -74 0 -52
-2 -59 -22 -65 -14 -3 -39 2 -62 14 l-39 19 7 -77 c4 -42 11 -104 17 -138 17
-98 11 -122 -36 -148 -43 -24 -95 -32 -95 -15 0 5 4 8 9 5 5 -3 9 23 10 58 1
60 -1 66 -30 90 -39 33 -47 33 -52 -1 -3 -16 -4 10 -3 57 l1 85 -80 0 c-44 1
-125 -2 -180 -5 -94 -5 -100 -6 -103 -27 -2 -13 0 -23 5 -23 5 0 8 -30 7 -67
0 -38 1 -81 3 -98 l4 -30 170 3 169 3 0 -40 c0 -34 -3 -39 -17 -34 -11 4 -14
3 -9 -6 5 -8 0 -21 -14 -33 -12 -11 -19 -22 -16 -25 9 -9 54 25 61 47 3 11 13
20 21 20 12 0 13 -4 3 -22 -24 -46 -54 -68 -125 -90 -65 -20 -74 -26 -80 -51
-8 -37 -68 -97 -98 -97 -22 0 -111 43 -120 59 -2 3 -7 27 -11 51 -8 54 -40
130 -54 130 -6 0 -11 7 -11 15 0 8 -4 15 -9 15 -13 0 -61 99 -62 128 0 15 -6
45 -13 67 -10 34 -16 39 -36 37 -22 -4 -22 -3 -6 14 14 13 16 26 12 53 -4 20
-9 66 -13 102 -6 65 -5 66 31 107 30 33 37 48 35 74 -2 18 1 39 5 47 5 7 9 80
10 161 1 82 -2 143 -5 138 -4 -6 -12 -7 -19 -3 -8 5 -11 4 -7 -2 3 -5 1 -27
-5 -47 -10 -33 -10 -40 5 -51 22 -16 22 -20 -10 -50 -35 -31 -38 -31 -55 3
-17 33 -13 52 12 52 21 0 34 26 17 34 -8 3 -6 8 6 16 21 13 22 30 2 30 -8 0
-15 6 -15 13 0 15 53 39 71 32 11 -4 19 10 32 49 9 30 29 72 44 93 25 36 31
39 78 41 27 1 61 -4 75 -11z m-310 -7 c0 -5 -4 -10 -10 -10 -5 0 -10 5 -10 10
0 6 5 10 10 10 6 0 10 -4 10 -10z m870 -25 c0 -5 -5 -3 -10 5 -5 8 -10 20 -10
25 0 6 5 3 10 -5 5 -8 10 -19 10 -25z m-1400 -12 c0 -14 -4 -22 -10 -18 -6 4
-7 11 -4 17 4 7 2 8 -4 4 -19 -11 -35 3 -22 19 16 20 40 7 40 -22z m670 23 c0
-14 -24 -29 -33 -19 -3 3 -3 11 0 19 7 18 33 18 33 0z m1184 -12 c9 -8 16 -11
16 -5 0 6 5 11 11 11 5 0 7 -4 4 -10 -3 -5 -1 -10 4 -10 6 0 11 -5 11 -11 0
-8 -5 -8 -15 1 -12 10 -15 10 -15 -3 0 -9 -5 -19 -11 -23 -7 -4 -9 0 -5 14 6
17 1 21 -34 27 -22 4 -40 11 -40 16 0 15 58 10 74 -7z m266 2 c0 -8 -4 -18
-10 -21 -5 -3 -10 -18 -11 -33 l0 -27 -11 25 c-13 29 -11 52 5 62 18 12 27 9
27 -6z m-2525 -41 c19 -41 17 -84 -5 -103 -8 -8 -9 -11 -3 -7 9 4 11 1 6 -11
-6 -17 -7 -17 -17 0 -6 9 -23 31 -38 48 -29 32 -27 48 10 91 21 24 27 22 47
-18z m1862 -7 c-3 -7 -5 -2 -5 12 0 14 2 19 5 13 2 -7 2 -19 0 -25z m343 12
c0 -5 -4 -10 -10 -10 -5 0 -10 5 -10 10 0 6 5 10 10 10 6 0 10 -4 10 -10z
m144 -22 c-3 -4 -11 -5 -19 -1 -21 7 -19 12 4 10 11 0 18 -5 15 -9z m86 2 c0
-5 -4 -10 -10 -10 -5 0 -10 5 -10 10 0 6 5 10 10 10 6 0 10 -4 10 -10z m110
-29 c0 -25 -15 -41 -38 -41 l-25 0 23 25 c24 26 40 32 40 16z m-1627 -49 c-2
-7 2 -12 7 -12 19 0 10 -21 -14 -30 -29 -11 -52 -66 -30 -74 22 -8 17 -32 -12
-51 -28 -18 -59 -13 -51 9 3 8 1 16 -5 18 -17 6 0 28 21 28 11 0 21 9 24 23 2
12 8 31 12 41 6 13 5 17 -2 13 -22 -14 -22 23 0 38 24 17 53 15 50 -3z m1456
-13 c79 -12 81 -13 81 -49 0 -27 -1 -28 -32 -20 -17 5 -72 13 -122 16 -115 9
-136 16 -136 49 l0 26 73 -6 c39 -3 101 -10 136 -16z m-211 -31 c17 -14 -1
-34 -20 -22 -7 5 -24 10 -38 12 -32 4 -38 11 -20 23 17 10 58 3 78 -13z
m-1318 -22 c0 -9 -8 -12 -25 -8 -14 2 -25 8 -25 13 0 5 11 9 25 9 14 0 25 -6
25 -14z m1773 -28 c13 -15 17 -31 13 -52 -11 -56 -44 -72 -75 -37 -9 10 -25
20 -36 22 -14 3 -20 13 -21 32 -1 29 10 44 21 27 3 -5 11 -10 17 -10 7 0 6 5
-2 15 -7 8 -10 21 -7 29 8 21 66 4 90 -26z m-348 -8 c3 -5 -1 -10 -10 -10 -9
0 -13 5 -10 10 3 6 8 10 10 10 2 0 7 -4 10 -10z m-1825 -4 c0 -2 -9 -6 -20 -9
-11 -3 -18 -1 -14 4 5 9 34 13 34 5z m1783 -18 c2 -7 1 -22 -4 -33 -8 -20 -8
-20 -8 1 -1 11 -6 25 -13 32 -9 9 -8 12 4 12 9 0 18 -6 21 -12z m-1655 -33
c-3 -3 -9 2 -12 12 -6 14 -5 15 5 6 7 -7 10 -15 7 -18z m1332 -15 c6 -11 8
-20 6 -20 -3 0 -10 9 -16 20 -6 11 -8 20 -6 20 3 0 10 -9 16 -20z m330 -30 c0
-5 -2 -10 -4 -10 -3 0 -8 5 -11 10 -3 6 -1 10 4 10 6 0 11 -4 11 -10z m-229
-18 c-7 -2 -18 1 -23 6 -8 8 -4 9 13 5 13 -4 18 -8 10 -11z m451 -114 c-7 -7
-12 -8 -12 -2 0 6 3 14 7 17 3 4 9 5 12 2 2 -3 -1 -11 -7 -17z m-1152 -434 c0
-15 -35 -20 -44 -5 -3 5 -15 7 -26 4 -11 -3 -20 -1 -20 5 0 10 66 21 83 14 4
-2 7 -10 7 -18z m23 11 c-3 -9 -8 -14 -10 -11 -3 3 -2 9 2 15 9 16 15 13 8 -4z
m87 -30 c0 -30 -37 -57 -68 -48 -12 3 -22 9 -22 14 0 5 -10 9 -22 9 -17 0 -19
3 -10 12 9 9 16 8 30 -5 36 -33 88 -16 80 27 -3 14 -1 23 3 20 5 -3 9 -16 9
-29z m-45 15 c-3 -5 -10 -10 -16 -10 -5 0 -9 5 -9 10 0 6 7 10 16 10 8 0 12
-4 9 -10z m-130 -50 c-5 -8 -11 -8 -17 -2 -6 6 -7 16 -3 22 5 8 11 8 17 2 6
-6 7 -16 3 -22z m235 22 c0 -5 -7 -9 -15 -9 -8 0 -15 4 -15 9 0 4 7 8 15 8 8
0 15 -4 15 -8z m-160 -42 c11 -8 6 -10 -20 -8 -19 1 -45 -2 -57 -6 -24 -8 -33
8 -10 17 21 9 71 7 87 -3z m268 -35 c4 -17 -13 -35 -33 -35 -5 0 -4 4 4 9 8 5
11 16 6 31 -5 16 -4 21 6 18 8 -3 16 -13 17 -23z m1082 15 c0 -5 -8 -10 -17
-10 -15 0 -16 2 -3 10 19 12 20 12 20 0z m-1785 -330 c-3 -5 -1 -10 5 -10 6 0
8 -5 4 -11 -4 -8 -9 -7 -15 2 -7 12 -3 29 7 29 3 0 2 -4 -1 -10z m183 -115
c-3 -3 -9 2 -12 12 -6 14 -5 15 5 6 7 -7 10 -15 7 -18z m2 -42 c0 -20 -3 -24
-11 -16 -7 7 -9 19 -6 27 10 24 17 19 17 -11z m1464 1 c21 -8 20 -20 -1 -28
-10 -4 -14 -4 -10 0 4 4 2 13 -4 21 -13 14 -9 16 15 7z m-1060 -31 c21 -11 25
-18 17 -26 -8 -8 -5 -17 11 -34 16 -18 18 -25 9 -37 -9 -11 -8 -15 4 -20 16
-6 21 -26 6 -26 -14 0 -42 30 -36 39 2 5 -5 17 -17 27 -12 11 -18 13 -14 7 4
-7 2 -13 -3 -13 -6 0 -11 10 -11 22 0 12 -3 18 -7 15 -3 -4 -12 1 -19 11 -17
22 -18 35 -1 27 6 -4 1 2 -13 14 l-25 20 35 -5 c19 -3 48 -13 64 -21z m1157
-6 c-10 -9 -11 -8 -5 6 3 10 9 15 12 12 3 -3 0 -11 -7 -18z m-1613 -21 c-1
-19 -6 -32 -10 -30 -12 8 -10 64 2 64 6 0 10 -15 8 -34z m28 -23 c-11 -11 -17
4 -9 23 7 18 8 18 11 1 2 -10 1 -21 -2 -24z m478 18 c3 -5 -1 -11 -9 -15 -15
-6 -29 7 -18 18 9 9 21 8 27 -3z m-222 -93 c6 -15 13 -26 17 -24 4 3 8 -3 9
-12 4 -43 9 -62 17 -69 4 -5 5 -2 0 6 -5 9 -4 12 3 7 7 -4 12 -14 12 -22 0 -9
-5 -12 -12 -8 -7 5 -8 3 -3 -6 6 -10 11 -9 22 5 7 11 13 13 13 6 0 -7 5 -9 10
-6 6 4 10 3 9 -2 -4 -21 3 -29 24 -28 12 0 23 -4 24 -9 1 -5 7 -12 15 -17 19
-12 17 -31 -4 -55 -17 -19 -17 -22 -3 -34 12 -10 15 -10 15 0 0 8 3 10 6 7 4
-4 1 -13 -6 -22 -7 -8 -9 -15 -5 -15 4 0 3 -6 -3 -13 -6 -7 -15 -25 -21 -39
-9 -24 -8 -26 10 -23 12 3 17 0 13 -7 -5 -7 -31 -8 -78 -4 -77 7 -108 26 -131
80 l-12 29 -2 -44 c-1 -24 -5 -73 -9 -109 l-7 -65 -20 33 -20 33 -7 -33 c-3
-18 -2 -40 3 -50 7 -13 6 -18 -2 -16 -7 2 -16 -12 -19 -30 -12 -54 -23 -51
-15 3 7 50 42 171 55 190 3 6 12 29 19 52 8 30 20 47 40 58 48 24 53 77 20
205 -16 59 -20 94 -14 115 l8 30 10 -35 c5 -19 14 -47 19 -62z m-235 50 c-3
-8 -6 -5 -6 6 -1 11 2 17 5 13 3 -3 4 -12 1 -19z m1563 -19 c0 -6 -4 -7 -10
-4 -5 3 -10 11 -10 16 0 6 5 7 10 4 6 -3 10 -11 10 -16z m-1560 -31 c0 -17 -2
-18 -15 -4 -8 8 -15 22 -15 32 0 13 3 14 15 4 8 -7 15 -21 15 -32z m405 32 c3
-5 1 -10 -4 -10 -6 0 -11 5 -11 10 0 6 2 10 4 10 3 0 8 -4 11 -10z m-405 -105
c0 -13 -3 -13 -21 4 -12 11 -18 24 -14 30 8 14 35 -11 35 -34z m-103 -12 c-4
-3 -1 -13 6 -22 11 -14 10 -14 -5 -2 -16 12 -16 31 -1 31 4 0 3 -3 0 -7z m91
-59 c-10 -9 -41 24 -33 35 5 9 11 7 22 -9 8 -12 13 -23 11 -26z m9 -76 c-3 -7
-5 -2 -5 12 0 14 2 19 5 13 2 -7 2 -19 0 -25z m10 -70 c-3 -7 -5 -2 -5 12 0
14 2 19 5 13 2 -7 2 -19 0 -25z m452 -50 c-6 -24 -16 -56 -23 -73 -8 -16 -26
-59 -41 -95 -40 -95 -75 -163 -82 -156 -6 6 16 66 43 118 8 14 14 34 14 43 0
15 -2 16 -16 4 -9 -7 4 18 29 56 24 39 52 87 60 108 21 49 27 47 16 -5z m-469
17 c10 -13 9 -15 -9 -15 -12 0 -21 6 -21 15 0 8 4 15 9 15 5 0 14 -7 21 -15z
m27 -17 c-3 -8 -6 -5 -6 6 -1 11 2 17 5 13 3 -3 4 -12 1 -19z m-9 -56 c3 -9
-2 -13 -14 -10 -9 1 -19 9 -22 16 -3 9 2 13 14 10 9 -1 19 -9 22 -16z m5 -57
c8 -18 -11 -31 -25 -17 -11 11 -3 32 12 32 4 0 10 -7 13 -15z m1014 -37 c-3
-7 -5 -2 -5 12 0 14 2 19 5 13 2 -7 2 -19 0 -25z m-2 -28 c3 -5 1 -10 -4 -10
-6 0 -11 5 -11 10 0 6 2 10 4 10 3 0 8 -4 11 -10z m-875 -150 c104 -13 121
-20 115 -41 -4 -13 -1 -19 9 -19 16 0 21 -22 16 -65 -1 -11 -5 -69 -9 -129
l-6 -108 -43 -2 c-34 -2 -47 2 -60 19 -28 35 -39 37 -82 15 -29 -15 -40 -17
-39 -8 2 13 -4 32 -26 83 -9 19 -10 35 -4 46 5 10 9 39 9 64 0 43 2 46 21 40
19 -6 21 -5 14 16 -4 13 -10 44 -12 68 -5 40 -4 43 13 36 11 -4 48 -11 84 -15z
m-125 -54 c-11 -8 -16 -19 -12 -30 4 -10 3 -15 -3 -11 -20 13 -2 55 24 55 5 0
1 -6 -9 -14z m-35 -6 c0 -5 -2 -10 -4 -10 -3 0 -8 5 -11 10 -3 6 -1 10 4 10 6
0 11 -4 11 -10z m1385 -70 c3 -5 2 -10 -4 -10 -5 0 -13 5 -16 10 -3 6 -2 10 4
10 5 0 13 -4 16 -10z m-18 -13 c37 -21 93 -99 93 -131 0 -23 -3 -27 -11 -19
-9 9 -15 8 -26 -3 -24 -24 -28 -16 -25 48 4 54 2 60 -11 50 -12 -10 -16 -9
-20 5 -4 10 -14 28 -23 41 -18 24 -10 28 23 9z m-1312 -277 c3 -5 1 -10 -4
-10 -6 0 -11 5 -11 10 0 6 2 10 4 10 3 0 8 -4 11 -10z"/>
<path d="M2450 3889 c0 -7 -10 -9 -25 -7 -30 6 -31 -1 -4 -36 21 -27 51 -36
47 -14 -2 7 3 13 10 14 6 1 17 2 22 3 19 2 10 17 -20 34 -20 12 -30 14 -30 6z"/>
<path d="M1794 3501 c3 -5 15 -7 26 -4 28 7 25 13 -6 13 -14 0 -23 -4 -20 -9z"/>
<path d="M1137 3473 c-20 -19 -7 -22 58 -14 15 2 -17 21 -36 21 -9 0 -19 -3
-22 -7z"/>
<path d="M1240 3350 c-14 -4 -20 -9 -15 -10 6 -2 -8 -6 -29 -9 l-40 -6 25 -28
c35 -40 87 -46 124 -14 28 24 28 25 8 31 -11 4 -23 16 -26 26 -6 22 -9 22 -47
10z m40 -47 c10 -9 -33 -31 -48 -25 -19 6 -42 27 -42 36 0 7 82 -4 90 -11z"/>
<path d="M2630 3364 c0 -6 7 -19 16 -30 14 -18 14 -18 3 6 -14 31 -19 36 -19
24z"/>
<path d="M2898 3353 c6 -2 18 -2 25 0 6 3 1 5 -13 5 -14 0 -19 -2 -12 -5z"/>
<path d="M2885 3310 c3 -5 8 -10 11 -10 2 0 4 5 4 10 0 6 -5 10 -11 10 -5 0
-7 -4 -4 -10z"/>
<path d="M1888 3193 c7 -3 16 -2 19 1 4 3 -2 6 -13 5 -11 0 -14 -3 -6 -6z"/>
<path d="M1649 3190 c0 -3 -2 -15 -5 -27 -2 -13 0 -23 5 -23 14 0 20 25 10 41
-5 8 -9 12 -10 9z"/>
<path d="M1950 3159 c0 -5 5 -7 10 -4 6 3 10 8 10 11 0 2 -4 4 -10 4 -5 0 -10
-5 -10 -11z"/>
<path d="M2025 3151 c-5 -18 -9 -20 -21 -10 -28 23 -26 0 2 -26 16 -15 23 -23
15 -19 -11 5 -13 3 -8 -10 4 -10 7 -21 7 -24 0 -4 4 -1 9 7 16 25 24 -54 13
-117 -6 -31 -9 -84 -6 -117 5 -65 -10 -148 -31 -165 -11 -9 -10 0 2 38 12 36
14 66 8 116 -4 37 -9 66 -11 64 -2 -3 -5 -36 -7 -74 -3 -76 -17 -104 -70 -139
-27 -18 -55 -57 -29 -41 5 3 12 -1 16 -9 3 -8 0 -17 -6 -21 -7 -4 -8 -3 -4 4
4 7 2 12 -3 12 -6 0 -11 -4 -11 -10 0 -5 -6 -10 -12 -10 -24 0 -119 54 -158
90 -43 40 -48 38 -26 -15 8 -19 11 -35 7 -35 -12 0 -41 65 -48 106 -3 20 -9
31 -13 24 -4 -6 -3 -30 2 -53 6 -23 15 -81 21 -129 6 -49 14 -88 19 -88 4 0 8
4 8 9 0 16 89 31 189 31 70 0 101 4 104 13 3 7 6 5 6 -5 1 -10 5 -18 10 -18 4
0 7 11 6 25 -4 32 11 41 20 12 6 -18 9 -11 17 33 9 46 12 51 19 33 5 -13 11
-23 15 -23 10 0 -5 421 -16 482 -5 27 -14 56 -19 65 -7 14 -10 13 -16 -6z"/>
<path d="M2032 3000 c0 -14 2 -19 5 -12 2 6 2 18 0 25 -3 6 -5 1 -5 -13z"/>
<path d="M1733 2903 c-38 -7 -26 -22 17 -20 42 2 51 10 24 21 -9 3 -16 5 -17
5 -1 -1 -12 -4 -24 -6z"/>
<path d="M1883 2900 c-31 -13 -29 -21 5 -18 15 1 37 -2 49 -6 19 -6 42 8 31
20 -10 10 -65 13 -85 4z"/>
<path d="M1857 2779 c-9 -6 -27 -7 -38 -4 -20 7 -21 6 -2 -12 10 -11 21 -18
25 -16 3 2 13 0 22 -3 13 -5 14 -9 4 -21 -9 -11 -3 -10 25 3 48 23 47 37 0 28
l-38 -7 19 22 c20 22 13 27 -17 10z"/>
<path d="M1730 2762 c0 -4 12 -12 26 -19 17 -8 24 -8 22 -1 -5 13 -48 31 -48
20z"/>
<path d="M2422 2720 c7 -11 17 -20 22 -20 5 0 1 9 -9 20 -10 11 -20 20 -22 20
-2 0 2 -9 9 -20z"/>
<path d="M1511 2684 c0 -11 3 -14 6 -6 3 7 2 16 -1 19 -3 4 -6 -2 -5 -13z"/>
<path d="M2470 2671 c0 -5 7 -12 16 -15 14 -5 15 -4 4 9 -14 17 -20 19 -20 6z"/>
<path d="M1655 2140 c3 -5 11 -10 16 -10 6 0 7 5 4 10 -3 6 -11 10 -16 10 -6
0 -7 -4 -4 -10z"/>
<path d="M1812 2132 c-56 -2 -90 -7 -87 -12 7 -11 216 -14 253 -4 40 11 23 25
-25 22 -27 -2 -90 -4 -141 -6z"/>
<path d="M1880 2090 c5 -3 5 -12 0 -20 -15 -24 -12 -50 6 -50 9 0 35 17 58 38
l41 38 -57 -1 c-31 0 -52 -2 -48 -5z"/>
<path d="M1695 2072 c3 -8 5 -15 5 -18 0 -5 86 -44 97 -44 4 0 18 18 29 39
l22 40 -29 -1 c-16 -1 -29 -5 -29 -10 0 -5 -5 -6 -12 -2 -6 4 -29 8 -50 8 -28
1 -37 -3 -33 -12z"/>
<path d="M2690 3041 c0 -20 240 -36 247 -16 2 6 -21 10 -54 10 -32 0 -88 4
-125 8 -42 5 -68 4 -68 -2z"/>
<path d="M1930 1089 c0 -5 5 -7 10 -4 6 3 10 8 10 11 0 2 -4 4 -10 4 -5 0 -10
-5 -10 -11z"/>
<path d="M1812 788 c-6 -6 -12 -25 -12 -41 0 -24 -3 -28 -19 -24 -12 3 -27 -3
-37 -14 -14 -15 -14 -19 -3 -19 8 0 21 6 28 13 10 10 16 7 32 -13 l19 -25 -6
42 c-4 28 -2 48 6 58 16 19 9 40 -8 23z"/>
<path d="M1733 743 c9 -2 23 -2 30 0 6 3 -1 5 -18 5 -16 0 -22 -2 -12 -5z"/>
<path d="M1765 680 c-3 -11 -11 -20 -16 -20 -6 0 -7 5 -4 10 7 11 -35 11 -80
0 -29 -7 -29 -8 10 -10 22 -1 46 -2 53 -1 6 1 12 -4 12 -10 0 -7 9 -4 21 7 21
19 22 19 15 -3 -5 -14 -3 -23 3 -23 6 0 11 -4 11 -10 0 -5 -8 -10 -19 -10 -10
0 -24 -7 -31 -15 -11 -13 -7 -15 28 -15 23 0 43 3 45 8 6 9 -26 112 -35 112
-4 0 -10 -9 -13 -20z"/>
<path d="M1715 610 c-3 -6 1 -7 9 -4 18 7 21 14 7 14 -6 0 -13 -4 -16 -10z"/>
<path d="M2260 4200 c19 -13 30 -13 30 0 0 6 -10 10 -22 10 -19 0 -20 -2 -8
-10z"/>
<path d="M1658 4074 c10 -5 9 -9 -5 -20 -16 -12 -16 -13 -1 -14 9 0 18 -6 21
-12 3 -10 7 -10 17 -1 7 6 19 9 26 6 8 -3 14 -1 14 5 0 15 -22 30 -55 36 -17
3 -24 3 -17 0z"/>
<path d="M1792 4054 c-21 -15 -32 -42 -12 -29 17 10 52 -5 46 -21 -8 -21 11
-17 34 8 31 34 26 58 -13 58 -18 0 -43 -7 -55 -16z"/>
<path d="M1770 3935 c-18 -9 -29 -10 -37 -3 -9 7 -13 7 -13 -1 0 -6 10 -16 23
-22 17 -7 12 -9 -26 -5 -27 2 -45 0 -40 -5 4 -4 32 -9 60 -11 57 -3 67 -17 29
-37 -19 -11 -28 -11 -47 0 -22 11 -23 11 -10 -4 7 -10 28 -17 45 -17 27 0 35
6 47 33 11 25 21 33 45 35 25 2 33 9 37 28 5 26 -7 33 -17 9 -3 -8 -17 -15
-31 -15 -14 0 -25 -4 -25 -10 0 -5 -10 -10 -22 -10 -18 0 -20 2 -9 9 11 7 26
43 18 41 -1 -1 -13 -7 -27 -15z"/>
<path d="M179 3763 c-13 -16 -12 -17 4 -4 9 7 17 15 17 17 0 8 -8 3 -21 -13z"/>
<path d="M145 3720 c-4 -6 -3 -24 0 -42 5 -22 10 -27 16 -17 4 8 4 16 -3 20
-5 4 -7 16 -3 28 7 22 1 28 -10 11z"/>
<path d="M132 3615 c0 -16 2 -22 5 -12 2 9 2 23 0 30 -3 6 -5 -1 -5 -18z"/>
<path d="M287 3540 c-51 -9 -65 -16 -54 -26 9 -9 197 18 197 28 0 10 -78 9
-143 -2z"/>
<path d="M231 3247 c0 -21 4 -59 10 -85 14 -62 50 -174 54 -170 4 3 -19 94
-37 148 -6 19 -14 60 -18 90 -6 46 -8 49 -9 17z"/>
<path d="M720 3032 c6 -13 14 -21 18 -18 3 4 -2 14 -12 24 -18 16 -18 16 -6
-6z"/>
<path d="M795 2960 c3 -5 8 -10 11 -10 2 0 4 5 4 10 0 6 -5 10 -11 10 -5 0 -7
-4 -4 -10z"/>
<path d="M330 2910 c6 -11 13 -20 16 -20 2 0 0 9 -6 20 -6 11 -13 20 -16 20
-2 0 0 -9 6 -20z"/>
<path d="M1010 2123 c1 -5 7 -35 15 -67 8 -33 12 -81 9 -109 -7 -60 10 -57 20
4 5 30 1 62 -14 111 -19 60 -31 84 -30 61z"/>
<path d="M1142 2110 c0 -14 2 -19 5 -12 2 6 2 18 0 25 -3 6 -5 1 -5 -13z"/>
<path d="M3109 1900 c-1 -5 -2 -16 -3 -22 -1 -7 -4 -15 -8 -18 -3 -3 0 -14 8
-25 13 -18 14 -15 13 28 -2 43 -7 61 -10 37z"/>
<path d="M1334 1842 c3 -5 1 -12 -6 -14 -8 -3 -9 -6 -1 -11 6 -4 13 0 17 8 3
8 0 17 -6 21 -6 4 -8 3 -4 -4z"/>
<path d="M2324 1377 c2 -21 0 -27 -10 -23 -8 3 -14 1 -14 -3 0 -5 6 -11 14
-14 10 -4 18 4 25 24 6 16 6 27 1 24 -4 -3 -11 1 -14 7 -3 7 -4 0 -2 -15z"/>
<path d="M2295 1311 c3 -6 -3 -14 -12 -20 -11 -6 -13 -11 -5 -11 10 0 9 -4 -3
-16 -9 -9 -14 -23 -11 -31 3 -8 1 -11 -4 -8 -6 3 -10 1 -10 -4 0 -20 -2 -26
-10 -36 -4 -5 -4 -28 0 -50 6 -29 8 -33 10 -15 1 20 3 21 8 8 5 -12 11 -14 21
-9 8 5 11 16 8 24 -3 9 -3 17 1 19 4 2 15 20 25 41 15 33 15 41 3 58 -7 11
-12 29 -9 40 3 11 0 19 -6 19 -7 0 -10 -4 -6 -9z"/>
<path d="M3091 1284 c0 -11 3 -14 6 -6 3 7 2 16 -1 19 -3 4 -6 -2 -5 -13z"/>
<path d="M1032 1230 c0 -19 2 -27 5 -17 2 9 2 25 0 35 -3 9 -5 1 -5 -18z"/>
<path d="M1040 1153 c-2 -89 -14 -216 -23 -243 -6 -19 -10 -39 -8 -45 11 -37
11 -69 -1 -76 -7 -5 -32 -9 -56 -9 -41 0 -42 -1 -36 -27 9 -35 6 -33 33 -26
l23 6 -23 13 c-24 14 -24 14 6 12 17 -1 36 1 43 6 7 4 12 3 12 -3 0 -5 -8 -15
-17 -21 -15 -9 -12 -10 15 -7 21 2 32 -1 32 -9 0 -8 -6 -11 -13 -8 -9 3 -12
-7 -12 -35 0 -22 4 -43 8 -47 4 -4 7 -2 7 5 0 7 5 9 10 6 6 -3 10 -1 10 4 0 6
5 11 11 11 5 0 7 -5 3 -12 -4 -7 -3 -8 4 -4 7 4 12 13 12 20 0 8 7 19 15 26
13 11 15 8 16 -21 1 -25 3 -28 6 -11 5 24 -14 82 -26 82 -4 0 -15 14 -24 30
-16 26 -18 55 -18 210 1 99 -1 180 -4 180 -3 0 -5 -3 -5 -7z"/>
<path d="M1330 960 c0 -5 5 -10 11 -10 5 0 7 5 4 10 -3 6 -8 10 -11 10 -2 0
-4 -4 -4 -10z"/>
<path d="M2750 866 c0 -4 5 -16 11 -28 9 -16 6 -25 -13 -47 -13 -14 -28 -33
-34 -41 -5 -10 -2 -9 8 2 22 24 27 23 20 -4 -5 -22 -5 -22 29 2 51 36 74 70
47 70 -7 0 -25 12 -40 27 -15 15 -28 23 -28 19z"/>
<path d="M690 780 c-19 -4 -28 -8 -19 -9 12 -1 15 -8 11 -28 -4 -23 -2 -25 14
-19 15 6 17 5 7 -5 -19 -19 -16 -56 5 -68 11 -7 12 -10 4 -11 -17 0 -51 40
-52 60 -1 13 -2 13 -9 0 -5 -8 -14 -62 -21 -120 l-12 -105 39 -36 c34 -31 47
-37 106 -43 37 -3 74 -9 84 -13 12 -5 15 -2 10 10 -3 9 1 21 10 29 15 11 16
11 10 -6 -11 -27 13 -39 36 -18 18 16 19 16 15 -3 -2 -14 -12 -20 -33 -22 -17
0 -36 -2 -42 -2 -16 -1 -16 -14 -2 -65 9 -33 14 -37 35 -33 13 2 24 0 24 -5 0
-24 116 16 123 42 3 10 15 20 27 22 27 4 27 0 34 186 3 88 1 140 -5 137 -5 -4
-9 -14 -9 -23 0 -9 -11 -35 -25 -57 -13 -22 -25 -48 -25 -57 0 -12 -8 -18 -22
-18 -13 0 -33 -3 -46 -6 -21 -6 -21 -7 -5 -21 17 -14 17 -14 -2 -7 -11 4 -35
9 -53 12 -26 3 -32 8 -29 21 31 97 35 126 26 178 -6 30 -9 62 -7 71 7 34 -107
52 -202 32z m166 -342 c-9 -5 -16 -16 -16 -25 0 -9 -3 -14 -6 -10 -4 3 -4 17
0 31 4 18 11 24 22 19 15 -5 15 -7 0 -15z"/>
<path d="M2832 740 c0 -14 2 -19 5 -12 2 6 2 18 0 25 -3 6 -5 1 -5 -13z"/>
<path d="M2770 689 c-25 -32 -28 -39 -11 -30 17 10 59 71 48 71 -2 0 -19 -18
-37 -41z"/>
<path d="M920 652 c0 -12 3 -12 15 -2 8 7 15 13 15 15 0 1 -7 2 -15 2 -8 0
-15 -7 -15 -15z"/>
<path d="M1046 603 c-6 -14 -5 -15 5 -6 7 7 10 15 7 18 -3 3 -9 -2 -12 -12z"/>
<path d="M912 559 c-14 -54 -5 -80 14 -43 17 31 17 37 4 29 -6 -4 -7 6 -4 25
9 45 -2 36 -14 -11z"/>
<path d="M1608 253 c7 -3 16 -2 19 1 4 3 -2 6 -13 5 -11 0 -14 -3 -6 -6z"/>
<path d="M1695 171 c-69 -6 -69 -6 -29 -14 45 -9 114 0 114 14 0 5 -3 8 -7 7
-5 -1 -39 -4 -78 -7z"/>
</g>
</svg>
